<mxfile host="app.diagrams.net" modified="2021-12-06T16:46:10.430Z" agent="5.0 (Macintosh; Intel Mac OS X 10_15_7) AppleWebKit/537.36 (KHTML, like Gecko) Chrome/96.0.4664.45 Safari/537.36 " etag="mc7qA7r4q9xB77fjmLO5" version="15.9.1" type="github">
  <diagram id="1Vdc9XCg5mnr2w7CUpGr" name="Activity Diagram">
    <mxGraphModel dx="1051" dy="566" grid="1" gridSize="10" guides="1" tooltips="1" connect="1" arrows="1" fold="1" page="1" pageScale="1" pageWidth="827" pageHeight="1169" math="0" shadow="0">
      <root>
        <mxCell id="0" />
        <mxCell id="1" parent="0" />
        <mxCell id="5fI2WmtW6dGSPdAmrsJY-5" value="Manufacturer" style="rounded=0;whiteSpace=wrap;html=1;" vertex="1" parent="1">
          <mxGeometry x="40" y="40" width="160" height="60" as="geometry" />
        </mxCell>
        <mxCell id="5fI2WmtW6dGSPdAmrsJY-6" value="Vehicle Inspector&amp;nbsp;" style="rounded=0;whiteSpace=wrap;html=1;" vertex="1" parent="1">
          <mxGeometry x="200" y="40" width="160" height="60" as="geometry" />
        </mxCell>
        <mxCell id="5fI2WmtW6dGSPdAmrsJY-7" value="Consumers&amp;nbsp;" style="rounded=0;whiteSpace=wrap;html=1;" vertex="1" parent="1">
          <mxGeometry x="360" y="40" width="160" height="60" as="geometry" />
        </mxCell>
        <mxCell id="5fI2WmtW6dGSPdAmrsJY-10" value="" style="rounded=0;whiteSpace=wrap;html=1;" vertex="1" parent="1">
          <mxGeometry x="40" y="100" width="160" height="490" as="geometry" />
        </mxCell>
        <mxCell id="5fI2WmtW6dGSPdAmrsJY-12" value="" style="rounded=0;whiteSpace=wrap;html=1;" vertex="1" parent="1">
          <mxGeometry x="200" y="100" width="160" height="490" as="geometry" />
        </mxCell>
        <mxCell id="5fI2WmtW6dGSPdAmrsJY-13" value="" style="rounded=0;whiteSpace=wrap;html=1;" vertex="1" parent="1">
          <mxGeometry x="360" y="100" width="160" height="490" as="geometry" />
        </mxCell>
        <mxCell id="5fI2WmtW6dGSPdAmrsJY-19" value="Car is Manufactured" style="html=1;" vertex="1" parent="1">
          <mxGeometry x="65" y="190" width="110" height="50" as="geometry" />
        </mxCell>
        <mxCell id="5fI2WmtW6dGSPdAmrsJY-20" value="Sell the car" style="html=1;" vertex="1" parent="1">
          <mxGeometry x="65" y="370" width="110" height="50" as="geometry" />
        </mxCell>
        <mxCell id="5fI2WmtW6dGSPdAmrsJY-21" value="Receive a car&amp;nbsp;" style="html=1;" vertex="1" parent="1">
          <mxGeometry x="385" y="370" width="110" height="50" as="geometry" />
        </mxCell>
        <mxCell id="5fI2WmtW6dGSPdAmrsJY-22" value="Send the car" style="html=1;" vertex="1" parent="1">
          <mxGeometry x="385" y="190" width="110" height="50" as="geometry" />
        </mxCell>
        <mxCell id="5fI2WmtW6dGSPdAmrsJY-23" value="Inspect vehicle" style="html=1;" vertex="1" parent="1">
          <mxGeometry x="230" y="260" width="110" height="50" as="geometry" />
        </mxCell>
        <mxCell id="5fI2WmtW6dGSPdAmrsJY-26" value="" style="ellipse;html=1;shape=startState;fillColor=#000000;strokeColor=#ff0000;" vertex="1" parent="1">
          <mxGeometry x="105" y="100" width="30" height="30" as="geometry" />
        </mxCell>
        <mxCell id="5fI2WmtW6dGSPdAmrsJY-27" value="" style="edgeStyle=orthogonalEdgeStyle;html=1;verticalAlign=bottom;endArrow=open;endSize=8;strokeColor=#ff0000;rounded=0;" edge="1" source="5fI2WmtW6dGSPdAmrsJY-26" parent="1">
          <mxGeometry relative="1" as="geometry">
            <mxPoint x="120" y="190" as="targetPoint" />
          </mxGeometry>
        </mxCell>
        <mxCell id="5fI2WmtW6dGSPdAmrsJY-28" value="" style="ellipse;html=1;shape=startState;fillColor=#000000;strokeColor=#ff0000;" vertex="1" parent="1">
          <mxGeometry x="270" y="100" width="30" height="30" as="geometry" />
        </mxCell>
        <mxCell id="5fI2WmtW6dGSPdAmrsJY-29" value="" style="edgeStyle=orthogonalEdgeStyle;html=1;verticalAlign=bottom;endArrow=open;endSize=8;strokeColor=#ff0000;rounded=0;" edge="1" source="5fI2WmtW6dGSPdAmrsJY-28" parent="1">
          <mxGeometry relative="1" as="geometry">
            <mxPoint x="285" y="190" as="targetPoint" />
          </mxGeometry>
        </mxCell>
        <mxCell id="5fI2WmtW6dGSPdAmrsJY-30" value="" style="ellipse;html=1;shape=startState;fillColor=#000000;strokeColor=#ff0000;" vertex="1" parent="1">
          <mxGeometry x="425" y="100" width="30" height="30" as="geometry" />
        </mxCell>
        <mxCell id="5fI2WmtW6dGSPdAmrsJY-31" value="" style="edgeStyle=orthogonalEdgeStyle;html=1;verticalAlign=bottom;endArrow=open;endSize=8;strokeColor=#ff0000;rounded=0;" edge="1" source="5fI2WmtW6dGSPdAmrsJY-30" parent="1">
          <mxGeometry relative="1" as="geometry">
            <mxPoint x="440" y="190" as="targetPoint" />
          </mxGeometry>
        </mxCell>
        <mxCell id="5fI2WmtW6dGSPdAmrsJY-34" value="Receive a vehicle" style="html=1;" vertex="1" parent="1">
          <mxGeometry x="230" y="190" width="110" height="50" as="geometry" />
        </mxCell>
        <mxCell id="5fI2WmtW6dGSPdAmrsJY-36" value="Send the car" style="html=1;" vertex="1" parent="1">
          <mxGeometry x="225" y="330" width="110" height="50" as="geometry" />
        </mxCell>
        <mxCell id="5fI2WmtW6dGSPdAmrsJY-37" value="Sell the car" style="html=1;" vertex="1" parent="1">
          <mxGeometry x="385" y="460" width="110" height="50" as="geometry" />
        </mxCell>
        <mxCell id="5fI2WmtW6dGSPdAmrsJY-40" value="" style="edgeStyle=orthogonalEdgeStyle;html=1;verticalAlign=bottom;endArrow=open;endSize=8;strokeColor=#ff0000;rounded=0;exitX=0.5;exitY=1;exitDx=0;exitDy=0;" edge="1" parent="1" source="5fI2WmtW6dGSPdAmrsJY-19" target="5fI2WmtW6dGSPdAmrsJY-20">
          <mxGeometry relative="1" as="geometry">
            <mxPoint x="130" y="200" as="targetPoint" />
            <mxPoint x="130" y="140" as="sourcePoint" />
          </mxGeometry>
        </mxCell>
        <mxCell id="5fI2WmtW6dGSPdAmrsJY-41" value="" style="edgeStyle=orthogonalEdgeStyle;html=1;verticalAlign=bottom;endArrow=open;endSize=8;strokeColor=#ff0000;rounded=0;exitX=1;exitY=0.5;exitDx=0;exitDy=0;" edge="1" parent="1" source="5fI2WmtW6dGSPdAmrsJY-20" target="5fI2WmtW6dGSPdAmrsJY-21">
          <mxGeometry relative="1" as="geometry">
            <mxPoint x="130" y="380" as="targetPoint" />
            <mxPoint x="130" y="250" as="sourcePoint" />
          </mxGeometry>
        </mxCell>
        <mxCell id="5fI2WmtW6dGSPdAmrsJY-42" value="" style="edgeStyle=orthogonalEdgeStyle;html=1;verticalAlign=bottom;endArrow=open;endSize=8;strokeColor=#ff0000;rounded=0;exitX=0.5;exitY=0;exitDx=0;exitDy=0;" edge="1" parent="1" source="5fI2WmtW6dGSPdAmrsJY-21" target="5fI2WmtW6dGSPdAmrsJY-22">
          <mxGeometry relative="1" as="geometry">
            <mxPoint x="140" y="390" as="targetPoint" />
            <mxPoint x="140" y="260" as="sourcePoint" />
          </mxGeometry>
        </mxCell>
        <mxCell id="5fI2WmtW6dGSPdAmrsJY-43" value="" style="edgeStyle=orthogonalEdgeStyle;html=1;verticalAlign=bottom;endArrow=open;endSize=8;strokeColor=#ff0000;rounded=0;exitX=0;exitY=0.5;exitDx=0;exitDy=0;" edge="1" parent="1" source="5fI2WmtW6dGSPdAmrsJY-22">
          <mxGeometry relative="1" as="geometry">
            <mxPoint x="340" y="215" as="targetPoint" />
            <mxPoint x="150" y="270" as="sourcePoint" />
          </mxGeometry>
        </mxCell>
        <mxCell id="5fI2WmtW6dGSPdAmrsJY-44" value="" style="edgeStyle=orthogonalEdgeStyle;html=1;verticalAlign=bottom;endArrow=open;endSize=8;strokeColor=#ff0000;rounded=0;exitX=0.5;exitY=1;exitDx=0;exitDy=0;" edge="1" parent="1" source="5fI2WmtW6dGSPdAmrsJY-34">
          <mxGeometry relative="1" as="geometry">
            <mxPoint x="285" y="260" as="targetPoint" />
            <mxPoint x="160" y="280" as="sourcePoint" />
          </mxGeometry>
        </mxCell>
        <mxCell id="5fI2WmtW6dGSPdAmrsJY-45" value="" style="edgeStyle=orthogonalEdgeStyle;html=1;verticalAlign=bottom;endArrow=open;endSize=8;strokeColor=#ff0000;rounded=0;exitX=0.5;exitY=1;exitDx=0;exitDy=0;" edge="1" parent="1" source="5fI2WmtW6dGSPdAmrsJY-23">
          <mxGeometry relative="1" as="geometry">
            <mxPoint x="285" y="330" as="targetPoint" />
            <mxPoint x="170" y="290" as="sourcePoint" />
          </mxGeometry>
        </mxCell>
        <mxCell id="5fI2WmtW6dGSPdAmrsJY-46" value="" style="edgeStyle=orthogonalEdgeStyle;html=1;verticalAlign=bottom;endArrow=open;endSize=8;strokeColor=#ff0000;rounded=0;exitX=1;exitY=0.5;exitDx=0;exitDy=0;" edge="1" parent="1" source="5fI2WmtW6dGSPdAmrsJY-36">
          <mxGeometry relative="1" as="geometry">
            <mxPoint x="400" y="370" as="targetPoint" />
            <mxPoint x="400" y="240" as="sourcePoint" />
            <Array as="points">
              <mxPoint x="400" y="355" />
            </Array>
          </mxGeometry>
        </mxCell>
        <mxCell id="5fI2WmtW6dGSPdAmrsJY-47" value="" style="edgeStyle=orthogonalEdgeStyle;html=1;verticalAlign=bottom;endArrow=open;endSize=8;strokeColor=#ff0000;rounded=0;exitX=0.25;exitY=1;exitDx=0;exitDy=0;entryX=0.25;entryY=0;entryDx=0;entryDy=0;" edge="1" parent="1" source="5fI2WmtW6dGSPdAmrsJY-21" target="5fI2WmtW6dGSPdAmrsJY-37">
          <mxGeometry relative="1" as="geometry">
            <mxPoint x="190" y="440" as="targetPoint" />
            <mxPoint x="190" y="310" as="sourcePoint" />
          </mxGeometry>
        </mxCell>
        <mxCell id="5fI2WmtW6dGSPdAmrsJY-49" value="" style="edgeStyle=orthogonalEdgeStyle;html=1;verticalAlign=bottom;endArrow=open;endSize=8;strokeColor=#ff0000;rounded=0;exitX=0.75;exitY=0;exitDx=0;exitDy=0;entryX=0.75;entryY=1;entryDx=0;entryDy=0;" edge="1" parent="1" source="5fI2WmtW6dGSPdAmrsJY-37" target="5fI2WmtW6dGSPdAmrsJY-21">
          <mxGeometry relative="1" as="geometry">
            <mxPoint x="422.5" y="470" as="targetPoint" />
            <mxPoint x="422.5" y="430" as="sourcePoint" />
          </mxGeometry>
        </mxCell>
        <mxCell id="5fI2WmtW6dGSPdAmrsJY-50" value="Track Odometer" style="html=1;" vertex="1" parent="1">
          <mxGeometry x="65" y="530" width="110" height="50" as="geometry" />
        </mxCell>
        <mxCell id="5fI2WmtW6dGSPdAmrsJY-51" value="Track Odometer" style="html=1;" vertex="1" parent="1">
          <mxGeometry x="225" y="530" width="110" height="50" as="geometry" />
        </mxCell>
        <mxCell id="5fI2WmtW6dGSPdAmrsJY-53" value="" style="endArrow=none;dashed=1;html=1;rounded=0;entryX=0;entryY=0.5;entryDx=0;entryDy=0;exitX=0;exitY=0.5;exitDx=0;exitDy=0;strokeColor=#FF0000;" edge="1" parent="1" source="5fI2WmtW6dGSPdAmrsJY-50" target="5fI2WmtW6dGSPdAmrsJY-26">
          <mxGeometry width="50" height="50" relative="1" as="geometry">
            <mxPoint x="390" y="360" as="sourcePoint" />
            <mxPoint x="440" y="310" as="targetPoint" />
            <Array as="points">
              <mxPoint x="50" y="555" />
              <mxPoint x="50" y="115" />
            </Array>
          </mxGeometry>
        </mxCell>
        <mxCell id="5fI2WmtW6dGSPdAmrsJY-54" value="" style="endArrow=none;dashed=1;html=1;rounded=0;entryX=0;entryY=0.5;entryDx=0;entryDy=0;strokeColor=#FF0000;" edge="1" parent="1" target="5fI2WmtW6dGSPdAmrsJY-28">
          <mxGeometry width="50" height="50" relative="1" as="geometry">
            <mxPoint x="225" y="560" as="sourcePoint" />
            <mxPoint x="265" y="120" as="targetPoint" />
            <Array as="points">
              <mxPoint x="210" y="560" />
              <mxPoint x="210" y="115" />
            </Array>
          </mxGeometry>
        </mxCell>
        <mxCell id="5fI2WmtW6dGSPdAmrsJY-52" value="Track Odometer" style="html=1;" vertex="1" parent="1">
          <mxGeometry x="385" y="530" width="110" height="50" as="geometry" />
        </mxCell>
        <mxCell id="5fI2WmtW6dGSPdAmrsJY-55" value="" style="endArrow=none;dashed=1;html=1;rounded=0;entryX=1;entryY=0.5;entryDx=0;entryDy=0;strokeColor=#FF0000;" edge="1" parent="1" target="5fI2WmtW6dGSPdAmrsJY-30">
          <mxGeometry width="50" height="50" relative="1" as="geometry">
            <mxPoint x="500" y="550" as="sourcePoint" />
            <mxPoint x="565" y="110" as="targetPoint" />
            <Array as="points">
              <mxPoint x="510" y="550" />
              <mxPoint x="510" y="115" />
            </Array>
          </mxGeometry>
        </mxCell>
      </root>
    </mxGraphModel>
  </diagram>
</mxfile>
